<svg width="29" height="32" viewBox="0 0 29 32" fill="none" xmlns="http://www.w3.org/2000/svg">
<path d="M19.7338 31.2681H5.89138C5.13764 31.2758 4.39108 31.1211 3.70248 30.8145C3.01388 30.5078 2.39938 30.0565 1.90078 29.4912C1.43308 28.9578 1.10516 28.3165 0.94646 27.6251C0.787762 26.9336 0.803254 26.2136 0.991545 25.5296L3.79656 15.1086C3.8575 14.9148 3.98134 14.7469 4.14848 14.6314C4.31561 14.5159 4.51649 14.4594 4.71933 14.4709H20.1793C20.3757 14.4575 20.5712 14.5073 20.7372 14.613C20.9033 14.7187 21.0311 14.8748 21.102 15.0584L24.5902 25.2716C24.8274 25.9669 24.8815 26.7116 24.7472 27.4339C24.613 28.1562 24.2951 28.8318 23.824 29.3955C23.3274 29.9957 22.7016 30.4759 21.9933 30.8002C21.285 31.1244 20.5126 31.2844 19.7338 31.2681ZM5.41116 16.1502L2.74432 25.9354C2.627 26.3696 2.61852 26.8259 2.71964 27.2641C2.82077 27.7023 3.02837 28.1088 3.32407 28.4477C3.63992 28.8072 4.02911 29.0948 4.46545 29.2913C4.90179 29.4879 5.37516 29.5886 5.8537 29.5869H19.6962C20.1872 29.5932 20.6734 29.4894 21.1191 29.2831C21.5647 29.0767 21.9584 28.7731 22.2712 28.3945C22.5716 28.0352 22.7745 27.6045 22.8601 27.144C22.9457 26.6835 22.9113 26.2087 22.7601 25.7654L19.5116 16.1502H5.41116Z" fill="#014E70"/>
<path d="M17.5991 24.0672C17.4415 24.0672 17.2854 24.0362 17.1398 23.9759C16.9942 23.9156 16.8619 23.8272 16.7505 23.7158C16.6391 23.6043 16.5507 23.472 16.4903 23.3264C16.43 23.1808 16.399 23.0248 16.399 22.8672V13.2685C16.399 12.3139 16.0198 11.3984 15.3448 10.7234C14.6698 10.0484 13.7543 9.66921 12.7997 9.66921C11.8451 9.66921 10.9297 10.0484 10.2547 10.7234C9.57966 11.3984 9.20046 12.3139 9.20046 13.2685V22.8672C9.20501 23.0276 9.17735 23.1873 9.11911 23.3368C9.06087 23.4863 8.97324 23.6226 8.8614 23.7377C8.74955 23.8527 8.61577 23.9442 8.46796 24.0067C8.32016 24.0691 8.16132 24.1013 8.00086 24.1013C7.8404 24.1013 7.68156 24.0691 7.53376 24.0067C7.38595 23.9442 7.25216 23.8527 7.14032 23.7377C7.02848 23.6226 6.94085 23.4863 6.88261 23.3368C6.82437 23.1873 6.79671 23.0276 6.80126 22.8672V13.2685C6.80126 11.6775 7.43329 10.1516 8.55831 9.02658C9.68333 7.90156 11.2092 7.26953 12.8002 7.26953C14.3912 7.26953 15.9171 7.90156 17.0421 9.02658C18.1671 10.1516 18.7992 11.6775 18.7992 13.2685V22.8672C18.7992 23.0248 18.7681 23.1808 18.7078 23.3264C18.6475 23.472 18.5591 23.6043 18.4477 23.7158C18.3362 23.8272 18.2039 23.9156 18.0583 23.9759C17.9127 24.0362 17.7567 24.0672 17.5991 24.0672Z" fill="#014E70"/>
<path d="M25.8356 8.50889C26.2387 6.22932 25.3298 4.41776 24.805 3.81248C24.8724 4.53778 24.0617 5.78127 23.7192 6.24147L24.8835 7.27238L25.8356 8.50889Z" fill="#014E70"/>
<path d="M21.1159 3.78766L21.5948 0.793686C21.6234 0.6153 21.8406 0.584634 21.9457 0.5916L24.8855 1.54436C25.127 1.68768 25.0376 1.93013 24.9627 2.03344L24.0675 2.5677L24.3298 3.08723C24.4044 4.51113 24.0011 4.97628 23.4116 5.59178L22.4367 3.50745L21.5186 4.04291C21.2104 4.11409 21.1217 3.9024 21.1159 3.78766Z" fill="#014E70"/>
<path fill-rule="evenodd" clip-rule="evenodd" d="M21.1016 6.30861C22.6663 6.31178 24.1814 6.8573 25.3889 7.85223C26.5965 8.84716 27.4218 10.23 27.7241 11.7651C28.0265 13.3002 27.7873 14.8927 27.0473 16.2713C26.3073 17.6498 25.1124 18.7292 23.6658 19.3255C22.2193 19.9219 20.6107 19.9982 19.1142 19.5417C17.6177 19.0851 16.3258 18.1238 15.4585 16.8215C14.5912 15.5193 14.2022 13.9566 14.3577 12.3998C14.5133 10.8429 15.2039 9.3881 16.3118 8.28323C16.9411 7.65527 17.6881 7.15762 18.51 6.81878C19.3319 6.47995 20.2126 6.30658 21.1016 6.30861Z" fill="#6FDBE6" stroke="#6FDBE6"/>
</svg>
