<svg width="33" height="32" viewBox="0 0 33 32" fill="none" xmlns="http://www.w3.org/2000/svg">
<path d="M19.6791 31.3892H5.8367C5.08295 31.3969 4.33639 31.2422 3.64779 30.9356C2.95919 30.6289 2.34469 30.1776 1.8461 29.6123C1.37839 29.0789 1.05047 28.4376 0.891773 27.7462C0.733075 27.0547 0.748567 26.3347 0.936858 25.6507L3.74187 15.2297C3.80282 15.0359 3.92666 14.868 4.09379 14.7525C4.26092 14.637 4.4618 14.5805 4.66464 14.592H20.1246C20.321 14.5786 20.5165 14.6283 20.6825 14.7341C20.8486 14.8398 20.9764 14.9959 21.0474 15.1795L24.5355 25.3927C24.7727 26.088 24.8268 26.8327 24.6926 27.555C24.5584 28.2773 24.2404 28.9529 23.7693 29.5166C23.2727 30.1168 22.6469 30.597 21.9386 30.9213C21.2304 31.2455 20.4579 31.4055 19.6791 31.3892ZM5.35647 16.2713L2.68963 26.0565C2.57231 26.4907 2.56383 26.947 2.66496 27.3852C2.76608 27.8234 2.97368 28.2299 3.26938 28.5688C3.58523 28.9283 3.97442 29.2159 4.41076 29.4124C4.8471 29.6089 5.32047 29.7097 5.79901 29.708H19.6415C20.1325 29.7143 20.6187 29.6105 21.0644 29.4042C21.51 29.1978 21.9037 28.8942 22.2165 28.5156C22.517 28.1563 22.7198 27.7256 22.8054 27.2651C22.8911 26.8046 22.8566 26.3298 22.7054 25.8865L19.4569 16.2713H5.35647Z" fill="#014E70"/>
<path d="M17.5444 24.1883C17.3868 24.1883 17.2307 24.1573 17.0851 24.097C16.9395 24.0367 16.8072 23.9483 16.6958 23.8368C16.5844 23.7254 16.496 23.5931 16.4357 23.4475C16.3753 23.3019 16.3443 23.1459 16.3443 22.9883V13.3896C16.3443 12.435 15.9651 11.5195 15.2901 10.8445C14.6151 10.1695 13.6996 9.7903 12.745 9.7903C11.7905 9.7903 10.875 10.1695 10.2 10.8445C9.52498 11.5195 9.14577 12.435 9.14577 13.3896V22.9883C9.15032 23.1487 9.12266 23.3083 9.06442 23.4579C9.00619 23.6074 8.91855 23.7437 8.80671 23.8588C8.69487 23.9738 8.56109 24.0653 8.41328 24.1278C8.26547 24.1902 8.10663 24.2224 7.94617 24.2224C7.78571 24.2224 7.62688 24.1902 7.47907 24.1278C7.33126 24.0653 7.19748 23.9738 7.08563 23.8588C6.97379 23.7437 6.88616 23.6074 6.82792 23.4579C6.76968 23.3083 6.74202 23.1487 6.74658 22.9883V13.3896C6.74658 11.7985 7.37861 10.2727 8.50363 9.14767C9.62865 8.02265 11.1545 7.39063 12.7455 7.39062C14.3365 7.39063 15.8624 8.02265 16.9874 9.14767C18.1124 10.2727 18.7445 11.7985 18.7445 13.3896V22.9883C18.7445 23.1459 18.7134 23.3019 18.6531 23.4475C18.5928 23.5931 18.5044 23.7254 18.393 23.8368C18.2815 23.9483 18.1492 24.0367 18.0036 24.097C17.858 24.1573 17.702 24.1883 17.5444 24.1883Z" fill="#014E70"/>
<path d="M25.7809 8.62998C26.184 6.35041 25.2751 4.53885 24.7503 3.93357C24.8177 4.65888 24.0071 5.90237 23.6645 6.36257L24.8288 7.39348L25.7809 8.62998Z" fill="#014E70"/>
<path d="M21.0612 3.90876L21.5401 0.91478C21.5687 0.736394 21.7859 0.705728 21.891 0.712693L24.8308 1.66545C25.0723 1.80877 24.9829 2.05122 24.9081 2.15453L24.0128 2.68879L24.2751 3.20832C24.3497 4.63222 23.9464 5.09737 23.3569 5.71287L22.382 3.62854L21.4639 4.164C21.1557 4.23518 21.067 4.0235 21.0612 3.90876Z" fill="#014E70"/>
<path fill-rule="evenodd" clip-rule="evenodd" d="M22.0203 6.00003C24.3335 6.00471 26.5736 6.81124 28.3589 8.28222C30.1442 9.75321 31.3644 11.7977 31.8115 14.0673C32.2585 16.3369 31.9049 18.6914 30.8108 20.7296C29.7167 22.7677 27.95 24.3636 25.8114 25.2452C23.6727 26.1269 21.2945 26.2398 19.0819 25.5647C16.8693 24.8897 14.9592 23.4685 13.677 21.5431C12.3947 19.6178 11.8195 17.3074 12.0496 15.0056C12.2796 12.7038 13.3006 10.553 14.9385 8.91945C15.869 7.99103 16.9734 7.25526 18.1886 6.7543C19.4038 6.25334 20.7058 5.99702 22.0203 6.00003Z" fill="#6FDBE6" stroke="#6FDBE6"/>
</svg>
