<svg width="33" height="32" viewBox="0 0 33 32" fill="none" xmlns="http://www.w3.org/2000/svg">
<path d="M11.4964 12.4994C11.4964 12.746 11.5695 12.987 11.7065 13.192C11.8435 13.397 12.0382 13.5568 12.266 13.6512C12.4938 13.7455 12.7444 13.7702 12.9863 13.7221C13.2281 13.674 13.4502 13.5553 13.6246 13.3809C13.7989 13.2066 13.9177 12.9845 13.9658 12.7426C14.0139 12.5008 13.9892 12.2501 13.8948 12.0223C13.8005 11.7945 13.6407 11.5998 13.4357 11.4629C13.2306 11.3259 12.9896 11.2528 12.743 11.2528C12.5791 11.2519 12.4166 11.2835 12.2649 11.3458C12.1133 11.4082 11.9755 11.5 11.8596 11.6159C11.7436 11.7319 11.6518 11.8696 11.5895 12.0213C11.5271 12.1729 11.4955 12.3355 11.4964 12.4994ZM25.8097 24.1794L21.8097 20.1794C23.1355 18.5318 23.8056 16.4523 23.6912 14.3407C23.5767 12.229 22.6858 10.2341 21.1897 8.73942C20.19 7.74616 18.961 7.01445 17.6113 6.60895C16.2616 6.20345 14.8329 6.13664 13.4512 6.41443C12.0696 6.69222 10.7777 7.30606 9.68964 8.20169C8.60158 9.09733 7.75088 10.2472 7.21273 11.5497C6.67457 12.8521 6.46552 14.2671 6.60406 15.6695C6.7426 17.072 7.22445 18.4187 8.00704 19.5907C8.78963 20.7627 9.84886 21.7239 11.0911 22.3893C12.3334 23.0548 13.7204 23.404 15.1297 23.4061C15.8907 23.4055 16.7007 23.4061 17.8027 22.499C18.0655 22.2135 18.3027 21.999 18.5408 20.5749C18.6639 20.3592 18.3027 18.999 18.3027 18.999C18.2373 18.7594 18.2812 19.9738 18.0655 19.8506C17.8499 19.7275 17.8403 20.2615 17.6007 20.3269C16.8027 20.999 16.3194 21.6971 15.3027 21.499C14.3027 21.499 11.8521 20.7871 11.0296 20.1576C10.2071 19.5282 9.54141 18.7169 9.08459 17.7873C8.62777 16.8578 8.39222 15.8351 8.39638 14.7994C8.39516 13.6947 8.6666 12.6067 9.18661 11.632C9.70663 10.6573 10.4591 9.82597 11.3774 9.21178C12.2957 8.5976 13.3514 8.21952 14.4508 8.11109C15.5502 8.00266 16.6594 8.16723 17.68 8.59019C18.7005 9.01315 19.601 9.68144 20.3014 10.5358C21.0018 11.3901 21.4805 12.4041 21.6951 13.4878C21.9098 14.5715 21.8536 15.6914 21.5317 16.7482C21.2098 17.805 20.632 18.7661 19.8497 19.5461C19.7602 19.6325 19.689 19.7361 19.6404 19.8506C19.5917 19.9652 19.5667 20.0883 19.5667 20.2128C19.5667 20.3372 19.5917 20.4603 19.6404 20.5749C19.689 20.6894 19.7602 20.793 19.8497 20.8794C19.8938 20.9249 19.9431 20.9652 19.9964 20.9994C20.0292 21.0538 20.0696 21.1032 20.1164 21.1461L24.4831 25.5128C24.5696 25.6015 24.6734 25.6715 24.7881 25.7185C24.9027 25.7655 25.0258 25.7885 25.1497 25.7861C25.3349 25.7874 25.5163 25.7337 25.6708 25.6316C25.8253 25.5296 25.946 25.3839 26.0175 25.213C26.089 25.0422 26.108 24.854 26.0722 24.6723C26.0364 24.4906 25.9473 24.3237 25.8164 24.1928L25.8097 24.1794Z" fill="#014E70"/>
<path d="M17.0664 20.8203C17.9245 20.1126 18.256 19.2181 18.3145 18.8594C19.0426 20.4719 18.2832 22.0905 17.7522 22.5222L17.0664 20.8203Z" fill="#014E70"/>
<path d="M14.6523 18.4795L15.2871 15.5146C15.3249 15.338 15.5435 15.3187 15.6481 15.3312L18.5341 16.4363C18.7677 16.5921 18.6658 16.8295 18.5856 16.9288L17.6637 17.4155L17.8985 17.948C17.8985 19.3739 17.4714 19.8173 16.8506 20.4011L15.9859 18.2687L15.0411 18.7554C14.7296 18.8104 14.6521 18.5944 14.6523 18.4795Z" fill="#014E70"/>
</svg>
